<svg xmlns="http://www.w3.org/2000/svg" fill="none" viewBox="0 0 605 142" height="142" width="605">
<path fill="#474747" d="M161 93H569V89H161V93Z" clip-rule="evenodd" fill-rule="evenodd"></path>
<path fill="#00ADEF" d="M73.6371 40.9978C77.569 27.5643 88.6557 17.3765 102.438 14.5275C116.221 11.6844 130.471 16.645 139.437 27.4191C144.384 35.664 146.69 45.215 146.016 54.7897V132C137.536 123.69 124.719 121.569 113.957 126.699C107.505 130.496 99.4684 130.558 92.939 126.877C86.4366 123.178 82.3825 116.298 82.3647 108.841C85.948 109.149 89.5314 107.946 92.2212 105.509C94.8871 103.086 96.4122 99.6511 96.439 96.0558C96.3705 88.0152 94.3212 80.099 90.425 73.0417C87.211 66.319 83.2195 59.9872 78.5221 54.2003C73.8009 59.9872 69.7856 66.319 66.5895 73.0417C62.7142 80.099 60.641 88.0152 60.5874 96.0558C60.6023 99.6511 62.1244 103.086 64.8112 105.509C67.4831 107.946 71.0516 109.149 74.6588 108.841C74.6201 116.298 70.5988 123.178 64.0665 126.877C57.5491 130.558 49.5126 130.496 43.0548 126.699C32.3881 121.116 19.2639 123.272 10.998 132V13.7693H73.6371V40.9978V40.9978ZM13.8486 91.6165C19.8805 87.3578 27.9945 87.4851 33.8953 91.8889C36.8234 99.8081 41.6161 106.91 47.9011 112.581C52.9381 116.502 59.7295 117.349 65.5946 114.793C63.444 119.565 59.2232 123.071 54.1236 124.309C49.0182 125.553 43.6297 124.356 39.5012 121.096C35.0004 118.072 31.3902 113.905 29.04 109.004C25.7664 101.866 20.5001 95.8337 13.8486 91.6165V91.6165ZM88.5365 112.078C93.6301 109.916 97.4756 105.595 99.0007 100.314C100.463 92.7833 99.7782 85.0004 97.008 77.8394C100.615 69.4345 109.101 64.1304 118.288 64.5006C115.705 72.017 114.776 80.0042 115.613 87.9027C115.967 92.1081 115.014 96.3194 112.899 99.971C110.698 104.191 107.57 107.875 103.787 110.751C99.3433 113.958 93.4663 114.459 88.5365 112.078V112.078ZM140.777 91.6165C134.742 87.3578 126.655 87.4732 120.721 91.8889C117.808 99.8081 113.001 106.91 106.719 112.581C101.687 116.502 94.902 117.349 89.0429 114.793C91.2084 119.565 95.4501 123.071 100.544 124.3C105.661 125.52 111.035 124.368 115.13 121.096C119.655 118.072 123.268 113.905 125.6 109.004C128.874 101.878 134.155 95.8337 140.777 91.6165V91.6165ZM68.4988 112.078C63.4023 109.916 59.5419 105.595 58.0257 100.314C56.5513 92.7833 57.2364 85.0004 60.0066 77.8394C56.3875 69.4345 47.9339 64.1215 38.7297 64.5006C41.3242 72.017 42.2327 80.0042 41.4135 87.9027C41.065 92.1081 42.0003 96.3194 44.1152 99.971C46.3165 104.191 49.4292 107.875 53.2449 110.751C57.6891 113.958 63.5482 114.474 68.4988 112.078" clip-rule="evenodd" fill-rule="evenodd"></path>
<path fill="#00ADEF" d="M178.285 79.4103V42.8385L200.705 79.4103H217.975V14.6545H200.705V51.2369L178.285 14.6545H161V79.4103H178.285Z" clip-rule="evenodd" fill-rule="evenodd"></path>
<path fill="#00ADEF" d="M246.508 37.1768H229.217V79.4103H246.508V37.1768" clip-rule="evenodd" fill-rule="evenodd"></path>
<path fill="#00ADEF" d="M275.398 14.6545H258.132V79.4103H275.398V14.6545Z" clip-rule="evenodd" fill-rule="evenodd"></path>
<path fill="#00ADEF" d="M229.217 14.6503H246.508V25.8955H229.217V14.6503Z" clip-rule="evenodd" fill-rule="evenodd"></path>
<path fill="#00ADEF" d="M332.581 31.1887H315.289L305.612 48.6279V14.6545H288.324V79.4103H305.612V61.9888L315.289 79.4103H332.581L319.167 55.3048L332.581 31.1887Z" clip-rule="evenodd" fill-rule="evenodd"></path>
<path fill="#00ADEF" d="M476.561 46.5195C476.576 38.6784 471.061 31.6607 463.201 29.7794C455.328 27.8839 447.39 31.2774 443.704 38.4725C441.182 33.4959 436.233 30.2054 430.64 29.8434C425.068 29.4671 419.749 32.0122 416.6 36.6054V31.1887H399.309V79.4103H416.6V49.6609C416.6 46.2106 419.382 43.3958 422.841 43.3674C426.295 43.3319 429.131 46.2106 429.22 49.6609V79.4103H446.494V49.6609C446.494 46.2035 449.244 43.3674 452.738 43.2893C456.189 43.2006 459.113 46.2035 459.281 49.6609V79.4103H476.561V46.5195Z" clip-rule="evenodd" fill-rule="evenodd"></path>
<path fill="#00ADEF" d="M568.99 14.6545H551.706V79.4103H568.99V14.6545Z" clip-rule="evenodd" fill-rule="evenodd"></path>
<path fill="#00ADEF" d="M351.038 77.9809C341.286 74.6301 334.739 65.4863 334.739 55.2279C334.739 44.9162 341.286 35.7794 351.038 32.4498C357.496 30.5827 364.487 32.1517 369.553 36.603V31.1862H386.82V79.4363H369.553V73.8136C364.487 78.2649 357.496 79.8374 351.038 77.9809V77.9809ZM369.553 55.2279C369.553 49.3071 364.754 44.5292 358.837 44.5292C352.931 44.5292 348.145 49.3071 348.145 55.2279C348.145 61.1131 352.931 65.8803 358.837 65.8803C364.754 65.8803 369.553 61.1131 369.553 55.2279Z" clip-rule="evenodd" fill-rule="evenodd"></path>
<path fill="#00ADEF" d="M521.518 55.2303C521.518 49.3095 516.718 44.5245 510.819 44.5245C504.895 44.5245 500.106 49.3095 500.106 55.2303C500.106 61.1156 504.895 65.8968 510.819 65.8968C516.718 65.8968 521.518 61.1156 521.518 55.2303ZM521.518 73.8161C516.466 78.2673 509.467 79.8398 503.002 77.9833C493.254 74.6609 486.689 65.4887 486.689 55.2303C486.689 44.9399 493.254 35.7818 503.002 32.4523C509.467 30.5852 516.466 32.1542 521.518 36.6054V31.1887H538.788V79.4103H521.518V73.8161" clip-rule="evenodd" fill-rule="evenodd"></path>
<path stroke-miterlimit="2.61313" stroke-width="1.5" stroke="#231F20" d="M591.74 1.00005C598.515 1.00005 604 6.4961 604 13.2558C604 20.0122 598.515 25.5049 591.74 25.5049C584.954 25.5049 579.472 20.0122 579.472 13.2558C579.472 6.4961 584.954 1.00005 591.74 1.00005Z"></path>
<path fill="#231F20" d="M586.029 20V5.78149H592.353C593.622 5.78149 594.579 5.92289 595.242 6.16715C595.906 6.42426 596.431 6.88064 596.827 7.52986C597.223 8.16622 597.397 8.87977 597.397 9.66718C597.417 10.6699 597.082 11.5216 596.431 12.2094C595.783 12.9004 594.762 13.3407 593.383 13.5304C593.886 13.7714 594.285 14.0124 594.524 14.2278C595.097 14.7356 595.606 15.3719 596.109 16.1272L598.592 20H596.212L594.337 17.04C593.776 16.1786 593.313 15.5262 592.955 15.0762C592.607 14.623 592.285 14.3081 592.021 14.141C591.731 13.9481 591.45 13.8164 591.157 13.7553C590.922 13.7103 590.574 13.6975 590.081 13.6975H587.923V20H586.029V20ZM587.923 12.0616H591.969C592.836 12.0616 593.512 11.9715 593.992 11.7916C594.482 11.6148 594.839 11.3352 595.097 10.9399C595.336 10.5414 595.484 10.1268 595.484 9.66718C595.484 8.98904 595.242 8.43619 594.746 8.00552C594.24 7.57163 593.474 7.36273 592.417 7.36273L587.923 7.35637V12.0616" clip-rule="evenodd" fill-rule="evenodd"></path>
<path fill="#231F20" d="M161 127.201V101.762H164.451V127.201H162.745H161ZM169.958 127.201V108.691H172.926V111.42L173.604 110.491C174.962 108.922 176.675 108.125 178.711 108.125C180.743 108.125 182.319 108.691 183.441 109.789C184.545 110.903 185.096 112.472 185.096 114.52V127.201H183.541H181.97V115.568C181.97 113.933 181.662 112.766 181.022 112.035C180.417 111.326 179.371 110.97 177.965 110.97C176.467 110.97 175.275 111.536 174.397 112.675C173.511 113.797 173.067 115.337 173.067 117.291V127.201H171.531H169.958ZM196.783 127.704C194.315 127.704 192.318 126.774 190.843 124.933C189.372 123.077 188.633 120.579 188.633 117.413C188.633 114.649 189.361 112.395 190.79 110.697C192.229 108.978 194.074 108.125 196.349 108.125C198.627 108.125 200.422 109.093 201.774 111.026L202.009 111.357V101.762H203.564H205.14V127.201H203.687H202.219V124.681L201.826 125.254C200.566 126.886 198.867 127.704 196.783 127.704ZM196.956 110.942C195.214 110.942 193.935 111.483 193.137 112.615C192.318 113.727 191.899 115.481 191.899 117.909C191.899 120.205 192.345 121.945 193.223 123.186C194.085 124.43 195.354 125.034 196.956 125.034C198.461 125.034 199.699 124.475 200.615 123.329C201.548 122.19 202.009 120.694 202.009 118.818C202.009 116.291 201.562 114.349 200.7 112.975C199.82 111.62 198.563 110.942 196.956 110.942V110.942ZM209.555 127.201V108.691H212.681V127.201H211.126H209.555ZM209.536 101.762H212.744V105.284H209.536V101.762ZM222.255 127.704C220.433 127.704 218.979 127.211 217.921 126.243C216.872 125.282 216.318 123.972 216.318 122.326C216.318 120.666 216.835 119.339 217.818 118.353C218.821 117.378 220.309 116.756 222.228 116.519L226.469 115.994C226.816 115.953 227.142 115.897 227.45 115.816C227.854 115.708 228.18 115.502 228.392 115.201C228.608 114.873 228.729 114.492 228.729 114.013V113.849C228.729 112.867 228.35 112.081 227.591 111.536C226.829 110.97 225.792 110.697 224.451 110.697C223.152 110.697 222.166 110.984 221.446 111.592C220.705 112.179 220.276 113.059 220.132 114.247H217.252C217.408 112.207 218.117 110.683 219.405 109.645C220.705 108.628 222.518 108.125 224.937 108.125C227.178 108.125 228.888 108.614 230.074 109.596C231.269 110.561 231.833 111.986 231.833 113.849V124.038C231.833 124.353 231.922 124.591 232.127 124.783C232.318 124.989 232.578 125.076 232.889 125.076C232.989 125.076 233.137 125.069 233.308 125.034C233.491 125.024 233.682 124.989 233.896 124.933V127.201C233.577 127.309 233.272 127.396 232.941 127.466C232.599 127.533 232.318 127.561 232.075 127.561C230.918 127.561 230.043 127.246 229.507 126.593C229.181 126.177 228.921 125.562 228.786 124.776C228.54 125.076 228.278 125.356 227.985 125.607C226.397 127.002 224.499 127.704 222.255 127.704V127.704ZM228.729 119.863V117.85C228.146 118.136 227.5 118.329 226.794 118.43L223.936 118.846C222.447 119.052 221.345 119.391 220.638 119.905C219.946 120.373 219.597 121.044 219.597 121.875C219.597 122.927 219.871 123.713 220.45 124.273C221.022 124.846 221.811 125.125 222.848 125.125C224.499 125.125 225.884 124.681 227.04 123.794C227.799 123.165 228.314 122.455 228.572 121.666C228.608 121.529 228.647 121.288 228.661 120.96C228.697 120.642 228.729 120.258 228.729 119.863V119.863ZM236.69 103.666V101.762H240.401V104.924C240.401 106.731 240.103 108.069 239.556 108.964C238.972 109.858 238.017 110.47 236.69 110.791V109.166C237.428 109.044 237.91 108.628 238.204 107.954C238.434 107.409 238.55 106.602 238.584 105.543H238.55H236.69V103.666V103.666ZM255.643 114.041C255.541 113.017 255.117 112.224 254.382 111.665C253.639 111.099 252.635 110.819 251.377 110.819C250.063 110.819 249.096 111.025 248.404 111.483C247.737 111.938 247.406 112.587 247.406 113.454C247.406 114.128 247.631 114.607 248.096 114.943C248.599 115.282 249.525 115.624 250.942 115.939L254.172 116.711C255.951 117.155 257.264 117.759 258.024 118.524C258.816 119.29 259.159 120.362 259.159 121.732C259.159 123.57 258.522 125.027 257.194 126.093C255.86 127.173 254.066 127.704 251.821 127.704C249.199 127.704 247.245 127.201 245.973 126.156C244.693 125.125 243.989 123.493 243.848 121.281H246.835C246.988 122.599 247.457 123.563 248.234 124.15C249.03 124.734 250.221 125.027 251.821 125.027C253.224 125.027 254.277 124.762 254.977 124.224C255.723 123.679 256.091 122.906 256.091 121.903C256.091 121.253 255.86 120.771 255.383 120.443C254.893 120.1 253.965 119.768 252.517 119.426L249.279 118.668C247.546 118.245 246.304 117.665 245.576 116.92C244.83 116.183 244.454 115.152 244.454 113.796C244.454 112.056 245.076 110.683 246.315 109.645C247.546 108.628 249.233 108.125 251.377 108.125C253.527 108.125 255.261 108.649 256.525 109.715C257.814 110.746 258.487 112.193 258.574 114.041H255.643V114.041ZM273.386 127.201V101.762H291.042V104.813H276.829V112.573H289.256V114.097V115.624H276.829V127.201H275.123H273.386V127.201ZM299.221 127.704C297.413 127.704 295.974 127.211 294.927 126.243C293.834 125.282 293.319 123.972 293.319 122.326C293.319 120.666 293.816 119.339 294.814 118.353C295.806 117.378 297.273 116.756 299.182 116.519L303.441 115.994C303.798 115.953 304.124 115.897 304.432 115.816C304.849 115.708 305.164 115.502 305.367 115.201C305.588 114.873 305.686 114.492 305.686 114.013V113.849C305.686 112.867 305.329 112.081 304.576 111.536C303.833 110.97 302.762 110.697 301.434 110.697C300.142 110.697 299.151 110.984 298.412 111.592C297.708 112.179 297.256 113.059 297.112 114.247H294.23C294.366 112.207 295.116 110.683 296.377 109.645C297.669 108.628 299.515 108.125 301.9 108.125C304.142 108.125 305.886 108.614 307.07 109.596C308.233 110.561 308.814 111.986 308.814 113.849V124.038C308.814 124.353 308.926 124.591 309.112 124.783C309.283 124.989 309.56 125.076 309.889 125.076C309.973 125.076 310.099 125.069 310.288 125.034C310.474 125.024 310.667 124.989 310.873 124.933V127.201C310.562 127.309 310.253 127.396 309.924 127.466C309.577 127.533 309.283 127.561 309.08 127.561C307.882 127.561 307.045 127.246 306.499 126.593C306.142 126.177 305.9 125.562 305.749 124.776C305.515 125.076 305.241 125.356 304.954 125.607C303.399 127.002 301.483 127.704 299.221 127.704V127.704ZM305.686 119.863V117.85C305.129 118.136 304.488 118.329 303.76 118.43L300.891 118.846C299.413 119.052 298.306 119.391 297.623 119.905C296.926 120.373 296.58 121.044 296.58 121.875C296.58 122.927 296.849 123.713 297.431 124.273C298.002 124.846 298.804 125.125 299.841 125.125C301.483 125.125 302.842 124.681 304.001 123.794C304.779 123.165 305.301 122.455 305.539 121.666C305.588 121.529 305.627 121.288 305.637 120.96C305.676 120.642 305.686 120.258 305.686 119.863V119.863ZM312.061 108.691H315.721L320.698 123.843L325.815 108.691H327.524H329.268L322.351 127.201H320.698H319.006L312.061 108.691V108.691ZM339.422 127.704C336.848 127.704 334.764 126.816 333.191 125.01C331.584 123.2 330.792 120.838 330.792 117.909C330.792 114.978 331.584 112.629 333.191 110.84C334.764 109.023 336.848 108.125 339.422 108.125C342.014 108.125 344.095 109.023 345.685 110.84C347.257 112.629 348.07 114.978 348.07 117.909C348.07 120.838 347.257 123.2 345.685 125.01C344.095 126.816 342.014 127.704 339.422 127.704ZM339.422 125.027C341.058 125.027 342.375 124.381 343.338 123.105C344.308 121.823 344.791 120.086 344.791 117.909C344.791 115.746 344.308 114.027 343.338 112.738C342.375 111.455 341.058 110.819 339.422 110.819C337.759 110.819 336.47 111.455 335.517 112.738C334.547 114.027 334.074 115.746 334.074 117.909C334.074 120.086 334.547 121.823 335.517 123.105C336.47 124.381 337.759 125.027 339.422 125.027ZM354.819 108.691V120.635C354.819 122.19 355.127 123.308 355.716 123.993C356.336 124.681 357.299 125.027 358.665 125.027C360.167 125.027 361.372 124.444 362.237 123.28C363.134 122.127 363.568 120.544 363.568 118.559V108.691H365.123H366.672V127.201H365.208H363.719V124.381C363.495 124.702 363.281 125.034 363.036 125.321C361.709 126.907 360.013 127.704 358.031 127.704C355.922 127.704 354.332 127.187 353.282 126.135C352.248 125.076 351.712 123.507 351.712 121.411V108.691H353.282H354.819V108.691ZM371.796 127.201V108.691H374.776V111.85C375.032 111.357 375.326 110.903 375.617 110.491C376.79 108.922 378.254 108.125 379.964 108.125C380.254 108.125 380.555 108.192 380.85 108.286V111.476L380.209 111.455C378.513 111.455 377.218 111.951 376.303 112.968C375.382 113.971 374.909 115.425 374.909 117.291V127.201H373.372H371.796V127.201ZM383.294 127.201V108.691H386.415V127.201H384.871H383.294ZM383.259 101.762H386.44V105.284H383.259V101.762ZM397.896 127.187C396.849 127.33 396.071 127.424 395.581 127.424C394.226 127.424 393.255 127.124 392.702 126.523C392.135 125.936 391.854 124.884 391.854 123.42V111.214H389.284V108.691H391.854V103.495H394.979V108.691H397.896V111.214H394.979V123.42C394.979 123.843 395.129 124.161 395.483 124.416C395.812 124.646 396.229 124.776 396.793 124.776H397.896V127.187V127.187ZM408.516 127.704C405.892 127.704 403.833 126.865 402.334 125.206C400.828 123.563 400.078 121.239 400.078 118.329C400.078 115.201 400.866 112.724 402.457 110.882C404.04 109.044 406.183 108.125 408.873 108.125C411.29 108.125 413.262 109.023 414.743 110.84C416.225 112.629 416.967 114.978 416.967 117.909L416.953 119.031H403.388C403.507 120.88 403.945 122.291 404.667 123.277C405.532 124.43 406.908 125.027 408.81 125.027C410.018 125.027 411.034 124.681 411.934 124.024C412.831 123.357 413.363 122.497 413.57 121.46H416.659C416.172 123.472 415.262 125.034 413.878 126.107C412.484 127.173 410.705 127.704 408.516 127.704V127.704ZM413.707 116.519C413.626 114.799 413.192 113.468 412.442 112.511C411.584 111.455 410.365 110.914 408.722 110.914C407.08 110.914 405.777 111.515 404.81 112.759C404.029 113.706 403.56 114.971 403.388 116.519H413.707V116.519ZM431.328 127.201V101.762H448.987V104.813H434.767V112.573H447.187V114.097V115.624H434.767V127.201H433.075H431.328V127.201ZM455.516 108.691V120.635C455.516 122.19 455.81 123.308 456.398 123.993C457.015 124.681 457.999 125.027 459.344 125.027C460.85 125.027 462.041 124.444 462.924 123.28C463.803 122.127 464.23 120.544 464.23 118.559V108.691H465.799H467.333V127.201H465.887H464.384V124.381C464.191 124.702 463.953 125.034 463.694 125.321C462.37 126.907 460.71 127.704 458.7 127.704C456.602 127.704 455.018 127.187 453.985 126.135C452.91 125.076 452.392 123.507 452.392 121.411V108.691H453.943H455.516V108.691ZM472.468 127.201V108.691H475.445V111.85C475.708 111.357 475.984 110.903 476.296 110.491C477.466 108.922 478.919 108.125 480.643 108.125C480.919 108.125 481.231 108.192 481.504 108.286V111.476L480.881 111.455C479.2 111.455 477.9 111.951 476.969 112.968C476.054 113.971 475.589 115.425 475.589 117.291V127.201H474.026H472.468V127.201ZM483.875 127.201V108.691H486.821V111.42L487.529 110.491C488.877 108.922 490.565 108.125 492.604 108.125C494.66 108.125 496.253 108.691 497.35 109.789C498.46 110.903 499.02 112.472 499.02 114.52V127.201H497.476H495.9V115.568C495.9 113.933 495.595 112.766 494.954 112.035C494.309 111.326 493.297 110.97 491.896 110.97C490.38 110.97 489.189 111.536 488.313 112.675C487.43 113.797 487.01 115.337 487.01 117.291V127.201H485.424H483.875V127.201ZM503.735 127.201V108.691H506.848V127.201H505.29H503.735ZM503.707 101.762H506.883V105.284H503.707V101.762ZM518.326 127.187C517.272 127.33 516.494 127.424 516.028 127.424C514.645 127.424 513.706 127.124 513.111 126.523C512.554 125.936 512.298 124.884 512.298 123.42V111.214H509.713V108.691H512.298V103.495H515.412V108.691H518.326V111.214H515.412V123.42C515.412 123.843 515.58 124.161 515.885 124.416C516.228 124.646 516.666 124.776 517.233 124.776H518.326V127.187ZM524.606 108.691V120.635C524.606 122.19 524.918 123.308 525.52 123.993C526.119 124.681 527.11 125.027 528.438 125.027C529.958 125.027 531.128 124.444 532.007 123.28C532.907 122.127 533.338 120.544 533.338 118.559V108.691H534.896H536.448V127.201H534.987H533.499V124.381C533.268 124.702 533.064 125.034 532.802 125.321C531.471 126.907 529.797 127.704 527.8 127.704C525.695 127.704 524.123 127.187 523.086 126.135C522.004 125.076 521.496 123.507 521.496 121.411V108.691H523.051H524.606ZM541.59 127.201V108.691H544.542V111.85C544.801 111.357 545.089 110.903 545.383 110.491C546.577 108.922 548.027 108.125 549.754 108.125C550.017 108.125 550.339 108.192 550.65 108.286V111.476L549.978 111.455C548.29 111.455 546.987 111.951 546.08 112.968C545.166 113.971 544.717 115.425 544.717 117.291V127.201H543.145H541.59V127.201ZM560.528 127.704C557.901 127.704 555.848 126.865 554.342 125.206C552.84 123.563 552.097 121.239 552.097 118.329C552.097 115.201 552.878 112.724 554.465 110.882C556.048 109.044 558.195 108.125 560.885 108.125C563.301 108.125 565.27 109.023 566.755 110.84C568.257 112.629 569 114.978 569 117.909L568.965 119.031H555.403C555.536 120.88 555.95 122.291 556.671 123.277C557.54 124.43 558.93 125.027 560.839 125.027C562.027 125.027 563.06 124.681 563.939 124.024C564.843 123.357 565.375 122.497 565.585 121.46H568.674C568.205 123.472 567.273 125.034 565.897 126.107C564.492 127.173 562.703 127.704 560.528 127.704V127.704ZM565.739 116.519C565.652 114.799 565.217 113.468 564.443 112.511C563.599 111.455 562.37 110.914 560.752 110.914C559.095 110.914 557.796 111.515 556.794 112.759C556.027 113.706 555.55 114.971 555.403 116.519H565.739Z"></path>
</svg>
